# xmcd CD database file
#
# Track frame offsets:
#	150
#	14166
#	25395
#	50216
#	65433
#	90007
#	106376
#	124409
#	144876
#	163758
#	181936
#	201326
#	216056
#	230598
#	255737
#	268750
#	289912
#	305594
#
# Disc length: 4347 seconds
#
# Revision: 0
# Processed by: cddbd v1.5.1PL0 Copyright (c) Steve Scherf et al.
# Submitted via: CDex 1.51
#
DISCID=1210f912
DTITLE=Acappella - The Series - Gospel Long Play
DYEAR=2000
DGENRE=Christian Acappella
TTITLE0=Inspiration
TTITLE1=Old Time Gospel
TTITLE2=Stamp Of Approval
TTITLE3=Jesus In The U.S.A.
TTITLE4=Hold On
TTITLE5=Giving Me Joy
TTITLE6=I Know Love
TTITLE7=We Are One
TTITLE8=There Is No Excuse
TTITLE9=Two Hearts
TTITLE10=Soul Doctor
TTITLE11=His Grace Is True
TTITLE12=Let Me Show You Me
TTITLE13=No More Wasted Years
TTITLE14=Go Out Quickly
TTITLE15=Education
TTITLE16=Old Time Gospel
TTITLE17=Right Way
EXTD=YEAR: 2000
EXTT0=
EXTT1=
EXTT2=
EXTT3=
EXTT4=
EXTT5=
EXTT6=
EXTT7=
EXTT8=
EXTT9=
EXTT10=
EXTT11=
EXTT12=
EXTT13=
EXTT14=
EXTT15=
EXTT16=
EXTT17=
PLAYORDER=
